<svg id="Layer_1" data-name="Layer 1" xmlns="http://www.w3.org/2000/svg" viewBox="0 0 702.36922 99.51042"><defs><style>.cls-1{fill:#fff;}</style></defs><title>finops-foundation-horizontal-white</title><path class="cls-1" d="M5.40606,7.25935H48.37337v9.64572H15.6056V36.75034h27.968v9.04575H15.6056V74.54866H5.40606Z"/><path class="cls-1" d="M56.04551,26.6431h9.64572V74.54866H56.04551Z"/><path class="cls-1" d="M75.59388,26.6431h9.64573v5.0767h.1846a15.46651,15.46651,0,0,1,12.461-5.67667A16.434,16.434,0,0,1,108.777,30.24294q4.89162,4.24644,5.12285,12.461V74.54866h-9.64573V46.02685q0-5.03007-2.6768-7.66119A9.0982,9.0982,0,0,0,94.793,35.68885a9.25161,9.25161,0,0,0-6.83047,2.67681q-2.72343,2.63064-2.72295,7.66119V74.54866H75.59388Z"/><path class="cls-1" d="M121.90554,40.904q0-11.72231.69227-15.6916a18.5786,18.5786,0,0,1,2.26144-6.4151A23.2364,23.2364,0,0,1,132.70506,10.49q5.307-3.6919,13.24556-3.78445,8.03042.09277,13.384,3.78445a22.6245,22.6245,0,0,1,7.66119,8.30732,15.4589,15.4589,0,0,1,2.35375,6.4151,129.51292,129.51292,0,0,1,.6,15.6916,129.762,129.762,0,0,1-.6,15.59931,15.56575,15.56575,0,0,1-2.35375,6.5074,21.94248,21.94248,0,0,1-7.66119,8.215q-5.35408,3.69261-13.384,3.87675a23.64052,23.64052,0,0,1-13.24556-3.87675,22.53445,22.53445,0,0,1-7.84581-8.215q-.73866-1.523-1.3384-2.90756a18.93128,18.93128,0,0,1-.923-3.59984Q121.90555,52.44242,121.90554,40.904Zm10.24569,0q0,9.92311.73843,13.43017a11.20331,11.20331,0,0,0,2.63066,5.67667,13.83941,13.83941,0,0,0,10.4303,4.89209,12.57527,12.57527,0,0,0,6.32279-1.523,11.2676,11.2676,0,0,0,4.06136-3.36908,11.82639,11.82639,0,0,0,2.723-5.67667Q159.75,50.82711,159.75,40.904q0-9.9224-.69227-13.52247a11.77435,11.77435,0,0,0-2.723-5.58437,12.15077,12.15077,0,0,0-4.06136-3.46138,14.85054,14.85054,0,0,0-6.32279-1.43071,14.10683,14.10683,0,0,0-6.18434,1.43071,12.86905,12.86905,0,0,0-4.246,3.46138,11.13406,11.13406,0,0,0-2.63066,5.58437Q132.151,30.98137,132.15123,40.904Z"/><path class="cls-1" d="M178.14411,26.6431h9.64572v4.98439a16.577,16.577,0,0,1,12.36868-5.58436q8.81475.23122,12.87635,6.27664a12.57883,12.57883,0,0,1,2.723,5.95358,75.59841,75.59841,0,0,1,.69227,12.36868,74.48885,74.48885,0,0,1-.69227,12.18407,13.21857,13.21857,0,0,1-2.723,6.04589,14.38859,14.38859,0,0,1-5.21515,4.43057,16.76219,16.76219,0,0,1-7.6612,1.79992,13.359,13.359,0,0,1-6.5997-1.61531,20.90523,20.90523,0,0,1-5.769-4.06136v24.5066h-9.64572ZM197.251,65.45675a9.804,9.804,0,0,0,5.39976-1.29225,7.37079,7.37079,0,0,0,2.81526-3.41523,17.72955,17.72955,0,0,0,1.24609-4.79978q.09207-2.58427.09231-5.30746,0-2.86117-.09231-5.58437a16.61314,16.61314,0,0,0-1.24609-4.79978,6.81657,6.81657,0,0,0-2.81526-3.41523,10.74972,10.74972,0,0,0-5.39976-1.1538,8.7204,8.7204,0,0,0-5.12285,1.3384,7.87141,7.87141,0,0,0-2.90756,3.50754,17.59021,17.59021,0,0,0-1.1538,4.70748,52.44872,52.44872,0,0,0-.27691,5.39976,46.77408,46.77408,0,0,0,.27691,5.0767,17.75006,17.75006,0,0,0,1.1538,4.84594,7.86631,7.86631,0,0,0,2.90756,3.50753A8.50127,8.50127,0,0,0,197.251,65.45675Z"/><path class="cls-1" d="M241.69227,66.05673a12.79929,12.79929,0,0,0,6.78431-1.61531,5.04562,5.04562,0,0,0,2.63065-4.52288,3.9577,3.9577,0,0,0-1.56916-3.59984,8.25056,8.25056,0,0,0-4.29212-1.15379l-8.49193-.73843a16.15756,16.15756,0,0,1-9.83033-4.06136q-3.87675-3.415-3.969-9.55342.09207-7.38381,5.21515-11.07643,4.98439-3.6919,12.64559-3.69214a38.44219,38.44219,0,0,1,5.95358.41536,29.74384,29.74384,0,0,1,4.93824,1.29225,28.19488,28.19488,0,0,1,7.93811,4.84594l-5.95358,6.96892a29.71944,29.71944,0,0,0-5.86128-3.27678,19.73489,19.73489,0,0,0-7.01507-1.15379q-4.52335,0-6.32279,1.61531a5.21229,5.21229,0,0,0-1.89223,4.15366,3.2559,3.2559,0,0,0,1.43071,2.81526q1.38455,1.33888,4.89209,1.70762l7.93811.6q7.47659.55383,10.79951,4.52288a15.27349,15.27349,0,0,1,3.09217,9.83033,12.44708,12.44708,0,0,1-5.67667,10.75336q-5.53821,3.87675-14.1686,3.96906-11.723,0-21.09136-8.58423l6.73816-6.59971Q232.41528,66.057,241.69227,66.05673Z"/><path class="cls-1" d="M289.87,7.25935h42.96732v9.64572H300.06952V36.75034h27.968v9.04575h-27.968V74.54866H289.87Z"/><path class="cls-1" d="M333.619,50.54973a41.758,41.758,0,0,1,1.2461-11.63025,16.78862,16.78862,0,0,1,3.96906-6.692,18.11086,18.11086,0,0,1,5.53821-4.29212,20.44989,20.44989,0,0,1,8.9996-1.89222,20.92023,20.92023,0,0,1,9.1842,1.89222,17.20046,17.20046,0,0,1,5.35361,4.29212,15.08666,15.08666,0,0,1,4.06136,6.692,44.958,44.958,0,0,1,1.15379,11.63025,43.84241,43.84241,0,0,1-1.15379,11.53794,16.43413,16.43413,0,0,1-4.06136,6.87662,14.96538,14.96538,0,0,1-2.26144,2.07683,10.50389,10.50389,0,0,1-3.09217,1.98453,19.21742,19.21742,0,0,1-9.1842,2.07683,18.79163,18.79163,0,0,1-8.9996-2.07683,18.19847,18.19847,0,0,1-5.53821-4.06136,18.42587,18.42587,0,0,1-3.96906-6.87662A40.72536,40.72536,0,0,1,333.619,50.54973Zm29.86021.0923a43.08055,43.08055,0,0,0-.46152-7.47659,8.82962,8.82962,0,0,0-1.89222-3.969,7.06168,7.06168,0,0,0-3.13832-2.53835,10.39811,10.39811,0,0,0-4.61518-.96919,10.56071,10.56071,0,0,0-4.52288.96919,8.56089,8.56089,0,0,0-3.23062,2.53835,11.157,11.157,0,0,0-1.79992,3.969,35.39105,35.39105,0,0,0-.55382,7.38429,34.37584,34.37584,0,0,0,.55382,7.292,12.07742,12.07742,0,0,0,1.79992,4.15366,11.72887,11.72887,0,0,0,3.23062,2.446,10.155,10.155,0,0,0,4.52288,1.01533,9.9984,9.9984,0,0,0,4.61518-1.01533,9.06678,9.06678,0,0,0,3.13832-2.446,9.51421,9.51421,0,0,0,1.89222-4.15366A40.39151,40.39151,0,0,0,363.47922,50.642Z"/><path class="cls-1" d="M380.39694,26.6431h9.64573V55.16491a10.22866,10.22866,0,0,0,2.723,7.56889,9.16613,9.16613,0,0,0,6.83047,2.72295,9.01519,9.01519,0,0,0,6.78431-2.72295,10.33388,10.33388,0,0,0,2.6768-7.56889V26.6431h9.64573V74.54866H409.0572V69.42581h-.1846a15.41928,15.41928,0,0,1-12.41483,5.67667,16.2227,16.2227,0,0,1-10.75337-4.33827q-5.21564-4.15367-5.30746-12.27638Z"/><path class="cls-1" d="M428.61176,26.6431h9.64573v5.0767h.1846a15.46651,15.46651,0,0,1,12.461-5.67667,16.434,16.434,0,0,1,10.89182,4.19981q4.89161,4.24644,5.12285,12.461V74.54866H457.272V46.02685q0-5.03007-2.6768-7.66119a9.09821,9.09821,0,0,0-6.78431-2.67681,9.25161,9.25161,0,0,0-6.83047,2.67681q-2.72343,2.63064-2.72295,7.66119V74.54866h-9.64573Z"/><path class="cls-1" d="M502.65113,69.51811a16.31534,16.31534,0,0,1-12.41484,5.58437,15.87341,15.87341,0,0,1-7.43043-1.79992A16.13458,16.13458,0,0,1,477.4061,68.872a12.11727,12.11727,0,0,1-2.63065-6.13819,65.83559,65.83559,0,0,1-.78458-12.18407,66.09983,66.09983,0,0,1,.78458-12.27638,11.93657,11.93657,0,0,1,2.63065-5.95358q4.06088-6.04564,12.83019-6.27664a15.4367,15.4367,0,0,1,6.83047,1.523,27.69275,27.69275,0,0,1,5.58437,4.15366V7.25935h9.64572V74.54866h-9.64572ZM493.19,35.68885a9.71053,9.71053,0,0,0-5.21515,1.1538,7.32593,7.32593,0,0,0-2.90757,3.41523,17.59049,17.59049,0,0,0-1.15379,4.70748,55.18425,55.18425,0,0,0-.27691,5.58437,49.79379,49.79379,0,0,0,.27691,5.30745,17.81567,17.81567,0,0,0,1.15379,4.89209,7.97236,7.97236,0,0,0,2.90757,3.41523A8.87481,8.87481,0,0,0,493.19,65.45675a9.29467,9.29467,0,0,0,5.39976-1.38455,6.78636,6.78636,0,0,0,2.723-3.50753,17.76954,17.76954,0,0,0,1.2461-4.84594q.09207-2.63066.09231-5.169,0-2.7691-.09231-5.30746a17.67384,17.67384,0,0,0-1.2461-4.70748,6.79012,6.79012,0,0,0-2.723-3.50754A9.54125,9.54125,0,0,0,493.19,35.68885Z"/><path class="cls-1" d="M547.06913,70.30269h-.18461a8.00961,8.00961,0,0,1-4.15366,3.59984,19.75648,19.75648,0,0,1-7.6612,1.2q-8.0304-.09278-12.36868-4.246a13.27049,13.27049,0,0,1-4.569-10.38415,13.57567,13.57567,0,0,1,3.969-10.01494q3.96882-4.06088,11.63025-4.15366h13.33787V41.27322q.09207-6.32256-9.83033-6.13819a17.50133,17.50133,0,0,0-5.67667.73843,6.93258,6.93258,0,0,0-3.41523,2.95371l-7.5689-5.769q5.49183-7.19968,16.19928-7.01507,9.04527-.09207,14.44551,3.41523,5.39976,3.59984,5.49206,12.36868V74.54866h-9.64572Zm0-16.06082h-11.538q-8.4001.18485-8.30732,5.769A5.12355,5.12355,0,0,0,529.393,64.1645q2.07684,1.8927,6.87662,1.89223,6.04565.09277,8.53808-1.43071,2.261-1.523,2.26144-6.92277Z"/><path class="cls-1" d="M567.65,12.05914h9.64572v14.584h7.01508v7.33814h-7.01508V61.90307q-.09278,3.64623,3.41524,3.55368h3.59984v9.09191h-5.03055a11.42279,11.42279,0,0,1-8.30732-3.13832Q567.65,68.4107,567.65,62.7338V33.98124h-4.79978V26.6431H567.65Z"/><path class="cls-1" d="M591.55422,7.25935h9.64572v9.64572h-9.64572Zm0,19.38375h9.64572V74.54866h-9.64572Z"/><path class="cls-1" d="M609.50441,50.54973a41.758,41.758,0,0,1,1.2461-11.63025,16.78872,16.78872,0,0,1,3.96905-6.692,18.11079,18.11079,0,0,1,5.53822-4.29212,20.44985,20.44985,0,0,1,8.99959-1.89222,20.92031,20.92031,0,0,1,9.18421,1.89222,17.20046,17.20046,0,0,1,5.35361,4.29212,15.08664,15.08664,0,0,1,4.06135,6.692,44.95788,44.95788,0,0,1,1.1538,11.63025,43.84233,43.84233,0,0,1-1.1538,11.53794,16.43411,16.43411,0,0,1-4.06135,6.87662,14.96586,14.96586,0,0,1-2.26144,2.07683,10.504,10.504,0,0,1-3.09217,1.98453,19.2175,19.2175,0,0,1-9.18421,2.07683,18.79158,18.79158,0,0,1-8.99959-2.07683,18.1984,18.1984,0,0,1-5.53822-4.06136,18.426,18.426,0,0,1-3.96905-6.87662A40.72536,40.72536,0,0,1,609.50441,50.54973Zm29.86021.0923a43.08055,43.08055,0,0,0-.46152-7.47659,8.82974,8.82974,0,0,0-1.89223-3.969,7.06157,7.06157,0,0,0-3.13832-2.53835,10.39808,10.39808,0,0,0-4.61518-.96919,10.56063,10.56063,0,0,0-4.52287.96919,8.56092,8.56092,0,0,0-3.23063,2.53835,11.15718,11.15718,0,0,0-1.79992,3.969,35.39175,35.39175,0,0,0-.55382,7.38429,34.37651,34.37651,0,0,0,.55382,7.292,12.07762,12.07762,0,0,0,1.79992,4.15366,11.72893,11.72893,0,0,0,3.23063,2.446,10.15489,10.15489,0,0,0,4.52287,1.01533,9.99837,9.99837,0,0,0,4.61518-1.01533,9.06659,9.06659,0,0,0,3.13832-2.446,9.51434,9.51434,0,0,0,1.89223-4.15366A40.39151,40.39151,0,0,0,639.36462,50.642Z"/><path class="cls-1" d="M657.03837,26.6431h9.64573v5.0767h.1846a15.46649,15.46649,0,0,1,12.461-5.67667,16.434,16.434,0,0,1,10.89183,4.19981q4.89161,4.24644,5.12285,12.461V74.54866h-9.64573V46.02685q0-5.03007-2.6768-7.66119a9.09821,9.09821,0,0,0-6.78431-2.67681,9.25161,9.25161,0,0,0-6.83047,2.67681q-2.72343,2.63064-2.723,7.66119V74.54866h-9.64573Z"/><polygon class="cls-1" points="60.213 8.487 66.6 12.133 60.171 15.78 53.784 12.133 60.213 8.487"/><polygon class="cls-1" points="60.193 12.299 60.193 19.523 53.785 15.894 53.785 8.67 60.193 12.299"/><polygon class="cls-1" points="60.193 12.299 60.193 19.523 66.603 15.894 66.603 8.67 60.193 12.299"/><polygon class="cls-1" points="60.213 5.039 66.601 8.685 60.172 12.332 53.785 8.685 60.213 5.039"/></svg>